<svg width="2186" height="577" xmlns="http://www.w3.org/2000/svg" xmlns:xlink="http://www.w3.org/1999/xlink" xml:space="preserve" overflow="hidden"><defs><filter id="fx0" x="-10%" y="-10%" width="120%" height="120%" filterUnits="userSpaceOnUse" primitiveUnits="userSpaceOnUse"><feComponentTransfer color-interpolation-filters="sRGB"><feFuncR type="discrete" tableValues="0 0"/><feFuncG type="discrete" tableValues="0 0"/><feFuncB type="discrete" tableValues="0 0"/><feFuncA type="linear" slope="0.301961" intercept="0"/></feComponentTransfer><feGaussianBlur stdDeviation="2.29963 2.29963"/></filter><filter id="fx1" x="-10%" y="-10%" width="120%" height="120%" filterUnits="userSpaceOnUse" primitiveUnits="userSpaceOnUse"><feComponentTransfer color-interpolation-filters="sRGB"><feFuncR type="discrete" tableValues="0.266667 0.266667"/><feFuncG type="discrete" tableValues="0.329412 0.329412"/><feFuncB type="discrete" tableValues="0.415686 0.415686"/><feFuncA type="linear" slope="1" intercept="0"/></feComponentTransfer><feGaussianBlur stdDeviation="6.62037 6.62037"/></filter><clipPath id="clip2"><rect x="1080" y="983" width="2186" height="577"/></clipPath><linearGradient x1="1981.24" y1="940.186" x2="2366.76" y2="1458.81" gradientUnits="userSpaceOnUse" spreadMethod="reflect" id="stroke3"><stop offset="0" stop-color="#FF0000"/><stop offset="0.42" stop-color="#00B0F0"/><stop offset="0.72" stop-color="#92D050"/><stop offset="1" stop-color="#FFFF00"/></linearGradient><clipPath id="clip4"><path d="M1838.31 1037.12 1834.66 1044.89 2163.9 1199.5 1834.66 1354.11 1838.31 1361.88 2174 1204.24 2509.69 1361.88 2513.34 1354.11 2184.1 1199.5 2513.34 1044.89 2509.69 1037.12 2174 1194.76ZM1080 983 3266 983 3266 1560 1080 1560Z" fill-rule="evenodd" clip-rule="evenodd"/></clipPath><clipPath id="clip5"><rect x="0" y="0" width="269" height="151"/></clipPath></defs><g clip-path="url(#clip2)" transform="translate(-1080 -983)"><text font-family="Yu Gothic,Yu Gothic_MSFontService,sans-serif" font-weight="400" font-size="83" transform="matrix(1 0 0 1 1862.58 1487)">Image not found</text><path d="M1909.5 1069.5C1909.5 1033.6 1938.6 1004.5 1974.5 1004.5L2373.5 1004.5C2409.4 1004.5 2438.5 1033.6 2438.5 1069.5L2438.5 1329.5C2438.5 1365.4 2409.4 1394.5 2373.5 1394.5L1974.5 1394.5C1938.6 1394.5 1909.5 1365.4 1909.5 1329.5Z" stroke="url(#stroke3)" stroke-width="12.6042" stroke-miterlimit="8" fill="none" fill-rule="evenodd"/><g filter="url(#fx0)" transform="translate(1950 1134)"><g><path d="M411.48 48.7236C406.355 48.7236 402.376 50.5986 399.543 54.3486 397.126 57.557 395.73 61.8278 395.355 67.1611L426.855 67.1611C426.064 54.8695 420.939 48.7236 411.48 48.7236ZM253.23 39.1611 269.73 39.1611 269.73 85.8486C269.73 93.557 273.022 97.4111 279.605 97.4111 282.772 97.4111 285.98 96.1195 289.23 93.5361 291.98 91.3278 294.189 88.5986 295.855 85.3486L295.855 39.1611 311.98 39.1611 311.98 109.411 296.355 109.411 296.355 97.2861C293.647 101.869 290.126 105.411 285.793 107.911 281.959 110.119 277.876 111.224 273.543 111.224 267.168 111.224 262.126 109.265 258.418 105.349 254.959 101.64 253.23 96.682 253.23 90.4736ZM97.4803 39.1611 113.605 39.1611 113.605 109.411 97.4803 109.411ZM411.23 37.5986C421.147 37.5986 428.98 41.2028 434.73 48.4111 439.98 54.9528 442.605 63.6403 442.605 74.4736L442.605 77.7861 395.105 77.7861C395.189 85.1195 396.897 90.7445 400.23 94.6611 403.272 98.2028 407.459 99.9736 412.793 99.9736 420.334 99.9736 425.272 95.5153 427.605 86.5986L442.23 90.8486C437.814 104.432 427.939 111.224 412.605 111.224 401.397 111.224 392.876 107.599 387.043 100.349 381.918 94.0153 379.355 85.4736 379.355 74.7236 379.355 62.557 382.689 53.0986 389.355 46.3486 395.064 40.5153 402.355 37.5986 411.23 37.5986ZM369.48 37.5986 368.418 52.7236C359.459 52.7236 352.814 58.6611 348.48 70.5361L348.48 109.411 332.605 109.411 332.605 39.1611 347.73 39.1611 347.73 56.4111C352.272 43.8695 359.522 37.5986 369.48 37.5986ZM161.23 37.5986C169.314 37.5986 175.876 39.807 180.918 44.2236 185.293 48.057 188.21 53.3278 189.668 60.0361L174.043 63.5986C172.543 54.0986 168.397 49.3486 161.605 49.3486 151.105 49.3486 145.855 57.682 145.855 74.3486 145.855 91.0986 151.105 99.4736 161.605 99.4736 169.022 99.4736 173.501 94.557 175.043 84.7236L190.043 88.8486C188.21 96.5986 184.522 102.39 178.98 106.224 174.189 109.557 168.272 111.224 161.23 111.224 150.564 111.224 142.397 107.557 136.73 100.224 131.814 93.807 129.355 85.2653 129.355 74.5986 129.355 62.3903 132.605 52.9528 139.105 46.2861 144.73 40.4945 152.105 37.5986 161.23 37.5986ZM27.3554 23.0361 27.3554 54.7861 43.6054 54.7861C56.647 54.7861 63.1678 49.4111 63.1678 38.6611 63.1678 28.2445 56.8553 23.0361 44.2303 23.0361ZM224.793 16.2236 224.793 39.1611 240.543 39.1611 240.543 50.9111 224.793 50.9111 224.793 89.4736C224.793 96.2236 227.689 99.5986 233.48 99.5986 236.605 99.5986 239.335 99.3278 241.668 98.7861L241.043 110.286C237.501 110.828 233.314 111.099 228.48 111.099 221.355 111.099 216.23 109.39 213.105 105.974 210.314 102.932 208.918 98.4111 208.918 92.4111L208.918 50.9111 198.418 50.9111 198.418 39.1611 208.918 39.1611 208.918 19.8486ZM96.8553 10.0986 114.293 10.0986 114.293 26.5986 96.8553 26.5986ZM10.1053 10.0986 45.1678 10.0986C68.7928 10.0986 80.6053 19.5778 80.6053 38.5361 80.6053 48.4111 77.0845 55.8903 70.0428 60.9736 63.7512 65.4736 55.1054 67.7236 44.1054 67.7236L27.3554 67.7236 27.3554 109.411 10.1053 109.411Z" stroke="#5B9BD5" stroke-width="4" stroke-linejoin="round" stroke-miterlimit="10" fill="#FFFFFF" fill-rule="evenodd"/></g></g><path d="M2361.48 1178.5C2356.36 1178.5 2352.38 1180.38 2349.54 1184.13 2347.13 1187.34 2345.73 1191.61 2345.36 1196.94L2376.86 1196.94C2376.06 1184.65 2370.94 1178.5 2361.48 1178.5ZM2203.23 1168.94 2219.73 1168.94 2219.73 1215.63C2219.73 1223.34 2223.02 1227.19 2229.61 1227.19 2232.77 1227.19 2235.98 1225.9 2239.23 1223.31 2241.98 1221.11 2244.19 1218.38 2245.86 1215.13L2245.86 1168.94 2261.98 1168.94 2261.98 1239.19 2246.36 1239.19 2246.36 1227.06C2243.65 1231.65 2240.13 1235.19 2235.79 1237.69 2231.96 1239.9 2227.88 1241 2223.54 1241 2217.17 1241 2212.13 1239.04 2208.42 1235.13 2204.96 1231.42 2203.23 1226.46 2203.23 1220.25ZM2047.48 1168.94 2063.61 1168.94 2063.61 1239.19 2047.48 1239.19ZM2361.23 1167.38C2371.15 1167.38 2378.98 1170.98 2384.73 1178.19 2389.98 1184.73 2392.61 1193.42 2392.61 1204.25L2392.61 1207.56 2345.11 1207.56C2345.19 1214.9 2346.9 1220.52 2350.23 1224.44 2353.27 1227.98 2357.46 1229.75 2362.79 1229.75 2370.33 1229.75 2375.27 1225.29 2377.61 1216.38L2392.23 1220.63C2387.81 1234.21 2377.94 1241 2362.61 1241 2351.4 1241 2342.88 1237.38 2337.04 1230.13 2331.92 1223.79 2329.36 1215.25 2329.36 1204.5 2329.36 1192.34 2332.69 1182.88 2339.36 1176.13 2345.06 1170.29 2352.36 1167.38 2361.23 1167.38ZM2319.48 1167.38 2318.42 1182.5C2309.46 1182.5 2302.81 1188.44 2298.48 1200.31L2298.48 1239.19 2282.61 1239.19 2282.61 1168.94 2297.73 1168.94 2297.73 1186.19C2302.27 1173.65 2309.52 1167.38 2319.48 1167.38ZM2111.23 1167.38C2119.31 1167.38 2125.88 1169.59 2130.92 1174 2135.29 1177.84 2138.21 1183.11 2139.67 1189.81L2124.04 1193.38C2122.54 1183.88 2118.4 1179.13 2111.61 1179.13 2101.11 1179.13 2095.86 1187.46 2095.86 1204.13 2095.86 1220.88 2101.11 1229.25 2111.61 1229.25 2119.02 1229.25 2123.5 1224.34 2125.04 1214.5L2140.04 1218.63C2138.21 1226.38 2134.52 1232.17 2128.98 1236 2124.19 1239.34 2118.27 1241 2111.23 1241 2100.56 1241 2092.4 1237.34 2086.73 1230 2081.81 1223.59 2079.36 1215.04 2079.36 1204.38 2079.36 1192.17 2082.61 1182.73 2089.11 1176.06 2094.73 1170.27 2102.11 1167.38 2111.23 1167.38ZM1977.36 1152.81 1977.36 1184.56 1993.61 1184.56C2006.65 1184.56 2013.17 1179.19 2013.17 1168.44 2013.17 1158.02 2006.86 1152.81 1994.23 1152.81ZM2174.79 1146 2174.79 1168.94 2190.54 1168.94 2190.54 1180.69 2174.79 1180.69 2174.79 1219.25C2174.79 1226 2177.69 1229.38 2183.48 1229.38 2186.61 1229.38 2189.33 1229.11 2191.67 1228.56L2191.04 1240.06C2187.5 1240.61 2183.31 1240.88 2178.48 1240.88 2171.36 1240.88 2166.23 1239.17 2163.11 1235.75 2160.31 1232.71 2158.92 1228.19 2158.92 1222.19L2158.92 1180.69 2148.42 1180.69 2148.42 1168.94 2158.92 1168.94 2158.92 1149.63ZM2046.86 1139.88 2064.29 1139.88 2064.29 1156.38 2046.86 1156.38ZM1960.11 1139.88 1995.17 1139.88C2018.79 1139.88 2030.61 1149.36 2030.61 1168.31 2030.61 1178.19 2027.08 1185.67 2020.04 1190.75 2013.75 1195.25 2005.11 1197.5 1994.11 1197.5L1977.36 1197.5 1977.36 1239.19 1960.11 1239.19Z" stroke="#5B9BD5" stroke-width="4" stroke-linejoin="round" stroke-miterlimit="10" fill="#FFFFFF" fill-rule="evenodd"/><text fill="#000000" fill-opacity="0" font-family="Arial,Arial_MSFontService,sans-serif" font-size="101.125" x="1960.11" y="1228.36">Picture</text><g clip-path="url(#clip4)"><g filter="url(#fx1)" transform="matrix(3 0 0 3 1781 982)"><g clip-path="url(#clip5)"><path d="M21.3983 23.9106 22.6153 21.3194 134.511 73.8647 246.407 21.3194 247.624 23.9106 137.879 75.4464 247.624 126.982 246.407 129.573 134.511 77.0275 22.6153 129.573 21.3983 126.982 131.143 75.4464Z" stroke="#172C51" stroke-width="2" stroke-miterlimit="8" fill-rule="evenodd"/></g></g></g><path d="M1834.66 1044.89 1838.31 1037.12 2174 1194.76 2509.69 1037.12 2513.34 1044.89 2184.1 1199.5 2513.34 1354.11 2509.69 1361.88 2174 1204.24 1838.31 1361.88 1834.66 1354.11 2163.9 1199.5Z" stroke="#172C51" stroke-width="4.58333" stroke-miterlimit="8" fill-rule="evenodd"/></g></svg>